<svg width="615" height="212" viewBox="0 0 615 212" fill="none" xmlns="http://www.w3.org/2000/svg">
<path fill-rule="evenodd" clip-rule="evenodd" d="M107.189 0.694751L85.4631 0.594604C88.0543 34.6448 72.3078 41.4548 44.7016 19.7228L32.8419 32.6418C50.781 60.1824 43.5057 74.2031 6.73071 67.9939L4.53817 87.3224C36.8284 91.3283 33.8386 126.981 3.44189 129.284L11.7138 149.514C35.7321 136.495 58.1559 158.227 32.9416 179.458L48.3891 194.881C67.1254 171.947 90.2468 179.859 87.1573 211.205L106.392 211.305L106.791 175.753C18.3911 156.224 26.065 51.1692 106.093 41.8554L107.189 0.694751Z" fill="#231F20"/>
<path fill-rule="evenodd" clip-rule="evenodd" d="M113.966 70.9984C134.696 71.0985 151.738 88.1236 151.937 108.954C152.136 129.785 135.593 146.61 114.863 146.51C94.1335 146.41 77.0915 129.384 76.8922 108.554C76.6928 87.6229 93.3362 70.8982 113.966 70.9984Z" fill="#0071BB"/>
<path fill-rule="evenodd" clip-rule="evenodd" d="M153.432 14.9158C163.498 14.9158 171.77 23.228 171.869 33.4431C171.969 43.558 163.896 51.7701 153.831 51.7701C143.765 51.7701 135.493 43.4578 135.393 33.2428C135.294 23.1279 143.366 14.9158 153.432 14.9158Z" fill="#F32735"/>
<path fill-rule="evenodd" clip-rule="evenodd" d="M165.989 63.3872C176.454 75.6052 182.932 91.5287 183.131 108.954C183.53 146.91 154.229 177.455 117.753 177.255C117.853 183.765 117.952 190.274 117.952 196.784C164.893 196.984 202.565 157.726 201.967 109.055C201.768 90.7275 196.187 73.6023 186.719 59.4814L165.989 63.3872Z" fill="#231F20"/>
<path d="M237.546 10.9098H260.07V112.76H320.763L318.072 131.488H237.546V10.9098Z" fill="#0071BB"/>
<path d="M343.087 3.99963H343.586C349.366 3.99963 354.15 8.70657 354.15 14.6153C354.15 20.4238 349.466 25.2309 343.586 25.2309H343.087C337.307 25.2309 332.523 20.524 332.523 14.6153C332.523 8.70657 337.207 3.99963 343.087 3.99963ZM332.523 41.8554H354.05V131.488H332.523V41.8554Z" fill="#0071BB"/>
<path d="M452.515 3.99963V106.651C452.515 114.863 452.515 123.175 452.715 131.488H431.985C431.487 128.884 431.088 123.476 430.989 120.972C426.603 128.784 418.531 133.591 404.778 133.591C382.055 133.591 367.803 115.264 367.803 87.5227C367.803 59.9821 383.052 39.8525 408.067 39.8525C421.919 39.8525 428.796 45.0602 430.989 49.3665V3.99963H452.515ZM390.028 86.9219C390.028 105.75 398.001 115.965 410.658 115.965C428.896 115.965 431.786 101.343 431.786 86.1207C431.786 69.2959 428.995 57.3783 411.455 57.3783C397.602 57.3783 390.028 68.3946 390.028 86.9219Z" fill="#0071BB"/>
<path d="M487.596 91.1281C487.696 104.648 494.473 116.365 507.628 116.365C519.189 116.365 522.677 111.158 525.168 105.349H546.795C543.506 116.465 533.839 133.591 507.03 133.591C478.128 133.591 465.77 111.258 465.77 87.9234C465.77 60.2827 479.823 39.8525 507.927 39.8525C537.925 39.8525 547.991 62.3858 547.991 83.7172C547.991 86.6215 547.991 88.7246 547.692 91.2283H487.596V91.1281ZM526.364 77.4079C526.165 65.4903 520.983 55.6759 507.827 55.6759C494.672 55.6759 489.191 64.7893 488.094 77.4079H526.364Z" fill="#0071BB"/>
<path d="M561.844 66.1913C561.844 56.0764 561.744 48.4652 561.645 41.8554H582.773C583.072 44.0587 583.371 52.2708 583.371 58.4799C587.556 47.5638 597.423 40.0528 612.472 39.7523V60.6832C594.433 60.583 583.371 66.9925 583.371 90.9278V131.488H561.844V66.1913Z" fill="#0071BB"/>
<path d="M319.866 186.368L325.746 185.467C326.045 187.871 327.042 189.673 328.537 190.975C330.032 192.277 332.125 192.878 334.915 192.878C337.606 192.878 339.699 192.277 340.995 191.176C342.29 190.074 342.988 188.772 342.988 187.27C342.988 185.968 342.39 184.866 341.194 184.065C340.397 183.564 338.304 182.863 335.115 182.062C330.73 180.961 327.74 179.959 326.045 179.158C324.351 178.357 323.056 177.255 322.159 175.753C321.262 174.351 320.863 172.748 320.863 171.046C320.863 169.444 321.262 168.041 321.959 166.639C322.657 165.338 323.654 164.136 324.949 163.335C325.846 162.634 327.142 162.033 328.736 161.632C330.331 161.131 332.025 160.931 333.919 160.931C336.709 160.931 339.101 161.332 341.194 162.133C343.287 162.934 344.881 164.036 345.778 165.438C346.775 166.84 347.473 168.642 347.871 170.946L341.991 171.747C341.692 169.944 340.995 168.542 339.699 167.441C338.403 166.439 336.61 165.938 334.317 165.938C331.626 165.938 329.633 166.439 328.437 167.34C327.241 168.242 326.643 169.343 326.643 170.545C326.643 171.346 326.843 172.047 327.341 172.648C327.839 173.249 328.637 173.85 329.633 174.251C330.231 174.451 332.025 174.952 334.915 175.753C339.101 176.854 342.091 177.856 343.785 178.557C345.479 179.258 346.775 180.36 347.672 181.662C348.668 183.064 349.067 184.766 349.067 186.769C349.067 188.772 348.469 190.675 347.373 192.377C346.177 194.18 344.582 195.482 342.29 196.483C340.098 197.485 337.606 197.986 334.816 197.986C330.231 197.986 326.743 196.984 324.351 195.081C322.059 192.978 320.564 190.074 319.866 186.368Z" fill="#0071BB"/>
<path d="M380.361 185.467L386.54 186.268C385.543 189.874 383.749 192.678 381.158 194.681C378.567 196.684 375.178 197.685 371.092 197.685C365.91 197.685 361.824 196.083 358.834 192.878C355.844 189.673 354.349 185.167 354.349 179.458C354.349 173.55 355.844 168.843 358.934 165.638C362.023 162.333 365.91 160.731 370.793 160.731C375.477 160.731 379.364 162.333 382.354 165.538C385.344 168.742 386.839 173.249 386.839 179.158C386.839 179.458 386.839 180.059 386.839 180.76H360.628C360.827 184.666 361.924 187.67 363.917 189.673C365.91 191.776 368.302 192.778 371.292 192.778C373.484 192.778 375.378 192.177 376.873 191.075C378.268 189.874 379.464 188.071 380.361 185.467ZM360.728 175.753H380.361C380.062 172.748 379.364 170.545 378.069 169.043C376.175 166.74 373.684 165.538 370.694 165.538C368.003 165.538 365.611 166.439 363.817 168.342C361.924 170.245 360.927 172.748 360.728 175.753Z" fill="#0071BB"/>
<path d="M393.915 196.884V161.532H399.296V166.94C400.692 164.436 401.887 162.734 403.083 161.932C404.279 161.131 405.475 160.731 406.87 160.731C408.864 160.731 410.957 161.332 413.049 162.633L410.957 168.242C409.462 167.34 408.066 166.94 406.572 166.94C405.276 166.94 404.08 167.34 403.083 168.142C402.087 168.943 401.289 170.044 400.891 171.446C400.193 173.55 399.894 175.953 399.894 178.457V196.984L393.915 196.884Z" fill="#0071BB"/>
<path d="M426.404 196.884L413.05 161.532H419.328L426.902 182.763C427.7 185.067 428.497 187.47 429.195 189.874C429.693 187.971 430.49 185.768 431.387 183.164L439.161 161.532H445.34L431.985 196.884H426.404Z" fill="#0071BB"/>
<path d="M450.622 154.922V148.012H456.602V154.922H450.622ZM450.622 196.884V161.532H456.602V196.884H450.622Z" fill="#0071BB"/>
<path d="M488.593 183.965L494.473 184.766C493.875 188.872 492.181 191.977 489.59 194.28C486.899 196.584 483.71 197.685 479.823 197.685C475.039 197.685 471.152 196.083 468.162 192.978C465.272 189.773 463.777 185.267 463.777 179.358C463.777 175.552 464.375 172.248 465.671 169.343C466.966 166.439 468.86 164.336 471.451 162.934C474.042 161.532 476.833 160.831 479.823 160.831C483.61 160.831 486.799 161.832 489.191 163.735C491.583 165.638 493.177 168.442 493.875 172.047L488.095 172.949C487.497 170.545 486.6 168.742 485.105 167.541C483.71 166.339 482.015 165.738 480.022 165.738C477.032 165.738 474.541 166.84 472.647 169.043C470.754 171.246 469.857 174.651 469.857 179.358C469.857 184.165 470.754 187.57 472.548 189.673C474.341 191.776 476.733 192.878 479.623 192.878C481.916 192.878 483.909 192.177 485.503 190.675C487.198 189.173 488.194 186.969 488.593 183.965Z" fill="#0071BB"/>
<path d="M523.773 185.467L529.952 186.268C528.956 189.874 527.162 192.678 524.571 194.681C521.979 196.684 518.591 197.685 514.505 197.685C509.322 197.685 505.236 196.083 502.246 192.878C499.257 189.673 497.762 185.167 497.762 179.458C497.762 173.55 499.257 168.843 502.346 165.638C505.436 162.333 509.322 160.731 514.206 160.731C518.89 160.731 522.777 162.333 525.767 165.538C528.756 168.742 530.251 173.249 530.251 179.158C530.251 179.458 530.251 180.059 530.251 180.76H504.04C504.24 184.666 505.336 187.67 507.329 189.673C509.322 191.776 511.714 192.778 514.704 192.778C516.897 192.778 518.79 192.177 520.285 191.075C521.581 189.874 522.876 188.071 523.773 185.467ZM504.14 175.753H523.773C523.474 172.748 522.777 170.545 521.481 169.043C519.588 166.74 517.096 165.538 514.106 165.538C511.316 165.538 509.023 166.439 507.23 168.342C505.336 170.245 504.339 172.748 504.14 175.753Z" fill="#0071BB"/>
</svg>
